<?xml version="1.0" encoding="UTF-8"?>
<svg width="1400px" height="526px" viewBox="0 0 1400 526" version="1.1" xmlns="http://www.w3.org/2000/svg" xmlns:xlink="http://www.w3.org/1999/xlink">
    <!-- Generator: Sketch 51.3 (57544) - http://www.bohemiancoding.com/sketch -->
    <title>c-swoosh-svg</title>
    <desc>Created with Sketch.</desc>
    <defs>
        <rect id="path-1" x="0" y="0" width="1400" height="525"></rect>
        <polygon id="path-3" points="0.182209977 0.160952147 1956.11375 0.160952147 1956.11375 1545.56576 0.182209977 1545.56576"></polygon>
    </defs>
    <g id="Page-1" stroke="none" stroke-width="1" fill="none" fill-rule="evenodd">
        <g id="c-swoosh-svg" transform="translate(0.000000, 0.875000)">
            <g id="Group-3">
                <mask id="mask-2" fill="white">
                    <use xlink:href="#path-1"></use>
                </mask>
                <g id="Mask" fill-rule="nonzero"></g>
                <g opacity="0.08" mask="url(#mask-2)">
                    <g transform="translate(-251.750000, -706.937500)">
                        <g id="Group-4" stroke-width="1" fill="none">
                            <mask id="mask-4" fill="white">
                                <use xlink:href="#path-3"></use>
                            </mask>
                            <g id="Clip-2"></g>
                            <path d="M1829.86192,1038.74264 C1567.38237,1041.82199 1224.64237,1220.33614 1206.6461,1229.88698 C1115.41356,1282.45152 997.302016,1309.10277 855.512285,1309.10277 C723.974903,1309.10277 599.331131,1259.2319 506.030512,1176.6847 C501.733393,1172.65482 497.269249,1169.02581 493.041978,1164.8198 L491.511414,1163.28923 C393.537109,1064.91103 344.458852,946.028128 344.458852,806.616238 C344.458852,666.839928 393.749687,547.680676 492.240254,449.150631 C590.764225,350.660064 709.92044,301.375302 849.702824,301.375302 C976.022927,301.375302 1052.84873,350.927306 1147.18187,434.300518 C1165.66707,449.460388 1187.16178,457.022102 1211.59006,457.022102 C1239.38012,457.022102 1263.14941,447.146321 1282.94349,427.352244 C1302.73453,407.600682 1312.61031,383.785838 1312.61031,355.992743 C1312.61031,324.843948 1300.81221,298.757552 1277.25854,277.697116 C1146.74457,164.001127 1026.53761,99.2892535 849.702824,99.2892535 C654.34336,99.2892535 487.606047,168.365056 349.530363,306.443777 C211.4152,444.561976 142.372803,611.253737 142.372803,806.616238 C142.372803,818.824306 142.640044,830.926086 143.186674,842.909429 C144.255639,866.879151 146.417864,890.405496 149.655128,913.488463 C170.69127,1063.48979 237.301164,1194.59898 349.48481,1306.7887 L350.699543,1307.90625 C364.15575,1321.31387 377.952082,1333.91065 391.954919,1346.01243 C394.153586,1347.91349 396.327958,1349.89047 398.544846,1351.75508 C412.465689,1363.5137 426.699325,1374.54955 441.151613,1385.02663 C443.650926,1386.83658 446.153277,1388.63742 448.670811,1390.40789 C463.451077,1400.83031 478.4834,1410.63624 493.813333,1419.73459 C495.608101,1420.80659 497.430201,1421.80267 499.228006,1422.85342 C532.614948,1442.2436 567.253064,1458.60302 603.203093,1471.79198 L604.177916,1472.16551 C622.228851,1478.7524 640.638133,1484.47683 659.332876,1489.50279 C660.359326,1489.77611 661.382739,1490.05853 662.409188,1490.33185 C681.149484,1495.26974 700.211685,1499.44538 719.592753,1502.82234 L721.12939,1503.08047 C743.064435,1506.84918 765.409452,1509.6461 788.176588,1511.41658 C810.360653,1513.57577 832.781591,1514.90286 855.512285,1514.90286 C1033.83208,1514.90286 1186.54226,1479.01053 1305.87158,1410.14427 C1392.21785,1364.79221 1655.08003,1246.61993 1832.30353,1244.5397 C1889.1166,1243.88678 1934.63873,1197.26228 1933.98581,1140.4401 C1933.33289,1083.57237 1886.39864,1038.56954 1829.86192,1038.74264" id="Fill-1" fill="#B88AB2" mask="url(#mask-4)"></path>
                            <path d="M772.272694,0.160952147 C558.980731,0.160952147 376.931706,75.5806986 226.180282,226.33516 C75.3802676,377.135174 0,559.13561 0,772.430609 C0,785.759269 0.29760963,798.972529 0.889792056,812.058243 C2.06504641,838.229669 4.41859195,863.915202 7.95346551,889.111805 C30.9210331,1052.89124 103.647109,1196.03844 226.134729,1318.52302 L227.455751,1319.74383 C242.147949,1334.38744 257.210641,1348.13518 272.501095,1361.35148 C274.906266,1363.42867 277.274996,1365.58786 279.695352,1367.62861 C294.894701,1380.46227 310.428101,1392.50938 326.210522,1403.9461 C328.946709,1405.92004 331.670748,1407.88791 334.416045,1409.8254 C350.553775,1421.20138 366.976968,1431.90925 383.709917,1441.84273 C385.671712,1443.00584 387.6578,1444.10214 389.622631,1445.24399 C426.073737,1466.42286 463.891418,1484.27944 503.142484,1498.67706 L504.208412,1499.084 C523.917458,1506.28129 544.015219,1512.52806 564.42881,1518.00954 C565.543327,1518.31019 566.663919,1518.62298 567.78451,1518.92059 C588.243654,1524.31097 609.058107,1528.87229 630.224833,1532.55597 C630.780573,1532.65315 631.33935,1532.73818 631.895091,1532.83536 C655.849629,1536.95634 680.244508,1540.00532 705.104023,1541.93675 C729.322766,1544.29333 753.796602,1545.74797 778.619675,1545.74797 C973.304962,1545.74797 1140.04531,1506.56068 1270.32848,1431.37173 C1364.60393,1381.85314 1651.59982,1252.83025 1845.09164,1250.56781 C1907.11591,1249.84504 1956.82279,1198.94772 1956.1061,1136.90523 C1955.39852,1074.94169 1904.34632,1025.86647 1842.78364,1025.86647 C1842.66217,1025.86647 1842.54981,1025.86647 1842.42833,1025.86647 C1830.09575,1026.01223 1817.59311,1026.51331 1804.97507,1027.33629 C1805.07529,1027.33326 1805.17247,1027.33022 1805.27268,1027.32718 C1805.73732,1027.312 1806.19284,1027.30896 1806.65444,1027.30896 C1816.75798,1027.30896 1827.12269,1030.58267 1837.0744,1036.13096 C1839.64963,1037.2303 1841.92726,1039.07669 1844.63307,1039.73568 C1894.30959,1051.87087 1927.37462,1091.40132 1927.96984,1143.23095 C1928.61973,1200.05313 1886.81165,1236.94458 1829.99858,1237.59446 C1652.77508,1239.67469 1390.42915,1355.72726 1304.08288,1401.08236 C1189.95262,1466.94216 1046.8358,1504.45919 878.668137,1514.69939 C843.814405,1516.82214 809.728992,1518.13102 772.764661,1518.13102 C749.016627,1518.13102 725.593535,1516.74318 702.425536,1514.48378 C678.638024,1512.63435 655.296925,1509.71291 632.37491,1505.77718 C631.840428,1505.68607 631.308982,1505.60712 630.777536,1505.5069 C610.52186,1501.98417 590.60631,1497.62025 571.036958,1492.45459 C569.958883,1492.17824 568.892954,1491.87759 567.820952,1491.59213 C548.291079,1486.34448 529.058816,1480.368 510.203121,1473.48046 L509.182745,1473.09175 C471.623195,1459.31363 435.43933,1442.22841 400.56434,1421.96666 C398.687578,1420.8734 396.783483,1419.8257 394.906721,1418.70814 C378.887427,1409.20285 363.187,1398.95962 347.747742,1388.07257 C345.117844,1386.22618 342.503131,1384.3403 339.891455,1382.44836 C324.789285,1371.50361 309.927024,1359.97883 295.380594,1347.69484 C293.066527,1345.74823 290.794976,1343.67711 288.493057,1341.69102 C273.86767,1329.04565 259.457897,1315.89312 245.397361,1301.88421 L244.134038,1300.71807 C126.936581,1183.51758 55.5953009,1047.53123 33.6207776,890.818505 C30.2407826,866.709088 27.9904893,842.128963 26.8577507,817.087238 C26.2989734,804.569413 26.0104743,791.92404 26.0104743,779.172379 C26.0104743,575.085057 98.1382938,400.946981 242.427338,256.6549 C386.67083,112.408372 560.857494,40.2441103 764.944816,40.2441103 C926.237088,40.2441103 1073.16514,102.064919 1198.61064,196.808033 C1222.32223,212.991316 1245.37179,230.829673 1267.73806,250.310956 C1286.05624,266.69467 1297.33808,286.081812 1301.56231,308.502749 C1302.88333,311.059763 1304.08288,313.665365 1305.17007,316.322594 C1311.20425,302.720619 1314.21983,287.891764 1314.21983,271.848176 C1314.21983,237.835647 1301.34062,209.35319 1275.62776,186.361328 C1133.12133,62.2277441 965.342386,0.160952147 772.272694,0.160952147" id="Fill-3" fill="#DB2E6D" mask="url(#mask-4)"></path>
                        </g>
                        <path d="M1301.56231,308.502749 C1302.30633,312.447595 1302.83171,316.492657 1303.13843,320.625787 C1303.84904,319.204549 1304.52626,317.771164 1305.17007,316.322594 C1304.08288,313.665365 1302.88333,311.059763 1301.56231,308.502749 M1844.63307,1039.73568 C1875.73024,1056.19228 1897.23709,1088.47381 1897.66832,1126.1518 C1897.67743,1127.01426 1897.67743,1127.87976 1897.66529,1128.73615 C1897.66225,1128.99124 1897.65921,1129.23722 1897.65618,1129.49232 C1897.66225,1129.74437 1897.66529,1129.99643 1897.66832,1130.24849 C1898.17851,1174.41011 1871.08085,1212.47985 1832.43108,1228.01325 C1819.86163,1233.43096 1806.03189,1236.49513 1791.44902,1236.66215 C1749.67131,1237.15412 1703.33835,1243.81997 1655.59933,1254.39118 C1499.22673,1290.33818 1329.29163,1367.93229 1262.83358,1402.84069 C1221.01032,1426.98047 1175.12984,1447.10557 1125.51407,1463.1036 C1051.47304,1489.77611 968.804376,1507.11339 878.668137,1514.69939 C1047.0666,1511.71115 1187.40776,1471.45186 1301.53498,1405.58902 C1387.88125,1360.23696 1655.08003,1246.61993 1832.30353,1244.5397 C1889.1166,1243.88678 1934.63873,1197.26228 1933.98581,1140.4401 C1933.39059,1088.61047 1894.34299,1046.6384 1844.63307,1039.73568" id="Fill-5" fill="#CD2057"></path>
                        <path d="M1761.71539,1030.98353 C1533.87396,1034.77046 1431.43551,1060.4894 1111.84528,1204.54157 C982.640186,1262.77892 906.716326,1279.01383 769.982922,1279.01383 C719.140265,1279.01383 665.913693,1277.32838 622.183299,1254.49444 C658.525079,1273.46857 700.071991,1289.72777 741.810223,1298.99922 C763.487136,1301.7263 785.188345,1304.68721 807.366336,1304.68721 C835.520814,1304.68721 863.034521,1302.09072 889.31831,1300.01352 C985.904782,1288.84709 1070.13742,1271.16361 1138.81236,1231.59368 C1149.29551,1226.03627 1269.33848,1161.10271 1421.87859,1110.22969 C1461.96479,1095.74703 1504.59889,1081.76849 1548.18959,1069.64545 C1619.09053,1049.92426 1692.53329,1035.10451 1761.71539,1030.98353" id="Fill-8" fill="#30B6BE"></path>
                        <path d="M454.228216,1166.69048 C454.295026,1166.75122 454.361836,1166.81499 454.428647,1166.87573 C530.905211,1238.8426 633.550165,1282.97993 741.810223,1296.58798 C700.071991,1287.31349 662.026547,1272.1354 622.183299,1254.49444 C563.396287,1228.46574 503.579788,1205.69253 454.228216,1166.69048" id="Fill-9" fill="#227194"></path>
                        <path d="M482.668156,393.376157 C460.775627,409.228425 439.772891,427.206476 419.662983,447.313347 C324.679959,542.32674 277.153523,657.237462 277.153523,792.027292 C277.153523,926.476998 324.476491,1041.11744 418.961474,1135.9881 L420.434338,1137.46097 C424.509768,1141.51514 428.815997,1145.01964 432.958238,1148.90375 C439.873106,1155.01994 446.967148,1160.95391 454.228216,1166.69048 C449.946281,1162.69705 445.506431,1159.07107 441.300418,1154.88328 L439.75467,1153.33753 C340.729621,1053.90555 291.125991,933.750213 291.125991,792.841164 C291.125991,651.570731 340.942199,531.142084 440.486546,431.555221 C454.155332,417.892509 468.215868,405.168179 482.668156,393.376157" id="Fill-15" fill="#273766"></path>
                        <path d="M1897.65618,1129.49232 C1897.02755,1173.59321 1870.5403,1211.5931 1832.43108,1228.01325 C1871.08085,1212.47985 1898.17851,1174.41011 1897.66832,1130.24849 C1897.66529,1129.99643 1897.66225,1129.74437 1897.65618,1129.49232 M1655.59933,1254.39118 C1491.76827,1290.67526 1311.34699,1372.97951 1241.49983,1409.66445 C1205.65305,1430.35136 1166.93343,1448.18668 1125.51407,1463.1036 C1175.12984,1447.10557 1221.01032,1426.98047 1262.83358,1402.84069 C1329.29163,1367.93229 1499.22673,1290.33818 1655.59933,1254.39118" id="Fill-16" fill="#0A061F"></path>
                        <path d="M764.944816,251.3617 C618.924777,251.3617 494.438921,302.848166 391.508505,405.739104 C288.623641,508.672557 237.134138,633.15234 237.134138,779.172379 C237.134138,924.81585 288.401952,1049.00713 390.752333,1151.77963 C391.295926,1152.30501 391.806114,1152.86075 392.349707,1153.37701 C396.768299,1157.77131 401.432875,1161.56431 405.91524,1165.77032 C503.385431,1252.01334 633.677712,1304.68721 771.088329,1304.68721 C775.112133,1304.68721 779.050905,1304.08592 783.038267,1304.0434 C769.147793,1302.09983 755.40005,1299.60963 741.810223,1296.58798 C633.550165,1282.97993 532.994552,1236.39187 454.428647,1166.87573 C454.361836,1166.81499 454.295026,1166.75122 454.228216,1166.69048 C446.967148,1160.95391 439.873106,1155.01994 432.958238,1148.90375 C428.815997,1145.01964 424.509768,1141.51514 420.434338,1137.46097 L418.961474,1135.9881 C324.476491,1041.11744 279.889709,926.26442 279.889709,791.814714 C279.889709,657.024883 324.679959,542.32674 419.662983,447.313347 C439.772891,427.206476 460.775627,409.228425 482.668156,393.376157 C573.518051,319.277433 679.895272,282.200739 801.778563,282.200739 C918.945652,282.200739 1029.45297,310.992952 1120.53973,380.861368 C1022.39537,295.483846 895.580259,251.3617 764.944816,251.3617 M1235.11944,389.039559 C1218.31664,400.178663 1199.10564,404.867533 1177.79618,404.867533 C1158.11447,404.867533 1148.06255,401.918768 1135.56295,392.908485 C1138.5846,395.441203 1141.58499,398.022511 1144.56108,400.652409 C1162.6272,415.47519 1175.79187,430.540918 1198.9872,431.506631 C1204.39277,427.865469 1210.05342,424.291116 1214.95487,419.389668 C1223.98641,410.379385 1230.3668,399.796022 1235.11944,389.039559" id="Fill-17" fill="#232D51"></path>
                        <path d="M296.255202,287.317803 C435.806787,147.766218 604.326721,77.9403178 801.778563,77.9403178 C935.268629,77.9403178 1119.81697,149.138866 1198.61064,196.808033 C1059.28985,90.2000124 926.237088,40.2441103 764.944816,40.2441103 C560.857494,40.2441103 386.67083,112.408372 242.427338,256.6549 C98.1382938,400.946981 26.0104743,575.085057 26.0104743,779.172379 C26.0104743,791.92404 26.2989734,804.569413 26.8577507,817.087238 C27.9904893,842.128963 30.2407826,866.709088 33.6207776,890.818505 C55.5953009,1047.53123 125.184328,1184.4924 242.381785,1301.68986 L243.648145,1302.85904 C257.705645,1316.86491 272.115417,1330.02047 286.743841,1342.66281 C289.045761,1344.65497 291.314275,1346.72305 293.631378,1348.66966 C308.177808,1360.95365 323.040069,1372.48147 338.142239,1383.42318 C340.753915,1385.31209 343.365592,1387.19796 345.995489,1389.05043 C361.434748,1399.93748 377.138211,1410.18071 393.157505,1419.686 C395.031231,1420.80356 396.935325,1421.84823 398.815125,1422.93845 C433.687077,1443.20324 469.870942,1460.28846 507.433529,1474.06657 L508.453905,1474.45832 C527.309601,1481.33978 546.541864,1487.31627 566.071736,1492.56696 C567.143738,1492.85242 568.209667,1493.15003 569.287743,1493.42942 C588.857094,1498.59203 608.772645,1502.959 629.025284,1506.48172 C629.556729,1506.58194 630.091212,1506.65786 630.622658,1506.74897 C653.54771,1510.68774 676.888808,1513.60917 700.67632,1515.46164 C723.844319,1517.71801 747.264375,1519.1028 771.012408,1519.1028 C807.976739,1519.1028 843.875141,1517.62994 878.668137,1514.69939 C968.804376,1507.11339 1051.47304,1489.77611 1125.51407,1463.1036 C1032.06464,1493.23506 924.773335,1505.59801 807.050505,1505.59801 C792.47067,1505.59801 778.264365,1506.30559 764.09754,1506.27218 C752.059534,1504.92383 740.103523,1503.38415 728.305427,1501.46488 C709.422399,1499.68833 690.824834,1497.21635 672.512731,1494.06715 L670.957873,1493.80902 C651.364227,1490.39562 632.104632,1486.17746 613.163905,1481.18187 C612.125308,1480.91463 611.086711,1480.62613 610.051151,1480.34674 C591.155977,1475.26308 572.546264,1469.48095 554.313119,1462.82725 L553.320075,1462.44765 C516.987405,1449.11595 481.972721,1432.5895 448.233507,1412.98371 C446.420518,1411.92689 444.574124,1410.91259 442.764171,1409.83452 C427.267213,1400.63898 412.0709,1390.72069 397.129682,1380.19199 C394.584816,1378.40633 392.058171,1376.58423 389.540637,1374.75606 C374.92436,1364.16055 360.541919,1353.01233 346.472272,1341.12921 C344.231089,1339.2403 342.038496,1337.24206 339.806423,1335.32278 C325.657819,1323.09042 311.712682,1310.36001 298.110707,1296.80663 L296.8899,1295.67693 C238.749733,1237.53676 195.204585,1177.38925 161.286198,1109.19716 C129.053253,1044.39722 107.758981,975.057215 97.4003434,901.186253 C94.1266374,877.860339 91.9431545,854.084974 90.8559683,829.851047 C90.3123752,817.743194 90.0360234,805.510831 90.0360234,793.166105 C90.0360234,667.304563 118.390933,553.213786 175.109862,450.869478 C207.370138,392.662501 245.640307,337.929661 296.255202,287.317803" id="Fill-25" fill="#571E4C"></path>
                        <path d="M1421.87859,1107.8154 C1269.33848,1158.68843 1148.52111,1220.14482 1138.03797,1225.70222 C1069.36303,1265.27216 985.904782,1286.43281 889.31831,1297.60228 C996.813086,1289.11737 1092.48243,1271.67684 1166.57812,1228.98808 C1176.57234,1223.68577 1281.61639,1158.49104 1421.87859,1107.8154" id="Fill-27" fill="#1C94B9"></path>
                        <path d="M1797.94177,1027.58531 C1796.22596,1027.68857 1794.498,1027.4608 1792.76397,1027.4608 C1792.64857,1027.4608 1792.54228,1027.4608 1792.42688,1027.4608 C1782.30815,1027.57924 1772.04669,1027.95581 1761.71539,1028.57228 C1649.99941,1035.22599 1527.16559,1069.77907 1421.87859,1107.8154 C1281.61639,1158.49104 1172.53942,1215.34662 1162.54217,1220.65197 C1088.44648,1263.33769 996.813086,1289.11737 889.31831,1297.60228 C863.034521,1299.67644 835.806276,1300.71807 807.651798,1300.71807 C785.473807,1300.71807 763.487136,1299.31202 741.81326,1296.58798 C755.40005,1299.60963 765.965192,1302.42477 783.038267,1304.0434 C806.850074,1307.38088 831.06578,1309.10277 855.512285,1309.10277 C900.332903,1309.10277 943.173505,1308.81427 982.773807,1301.13715 C1055.47559,1287.04929 1111.14681,1265.94026 1163.07362,1236.02442 C1181.54363,1226.22759 1511.43784,1054.1819 1789.15925,1030.60696 C1790.62604,1030.73755 1792.72752,1028.76361 1794.2095,1028.74538 C1796.08019,1028.59658 1798.94696,1028.06513 1799.80031,1027.84648 C1801.52219,1027.72197 1803.25319,1027.44866 1804.97507,1027.33629 C1802.63064,1027.40918 1800.30139,1027.49117 1797.94177,1027.58531" id="Fill-31" fill="#26335A"></path>
                        <path d="M772.272694,220.808124 C619.662728,220.808124 489.564804,274.61473 381.99107,382.145949 C274.459852,489.725756 220.644135,619.820643 220.644135,772.430609 C220.644135,924.642751 272.938399,1059.25645 379.910839,1166.66619 C380.478727,1167.21586 381.01321,1167.79285 381.578061,1168.33645 C386.197084,1172.92814 391.068164,1176.89121 395.760071,1181.2855 C497.624558,1271.41871 633.729338,1327.73677 777.332058,1325.86912 C969.554473,1323.37284 920.901373,1314.38686 982.773807,1301.13715 C942.787828,1306.4425 902.513349,1305.99305 857.692731,1305.99305 C833.246226,1305.99305 806.850074,1307.38088 783.038267,1304.0434 C779.050905,1304.08592 775.033175,1304.29546 771.012408,1304.10718 C631.430455,1297.60228 506.030512,1250.88668 408.563358,1164.64366 C404.077956,1160.43765 399.416418,1156.64464 394.997826,1152.25338 C394.454232,1151.73712 393.944045,1151.18138 393.397415,1150.65297 C291.047034,1047.88047 242.190465,925.675274 242.190465,780.034839 C242.190465,634.011763 288.225816,513.570968 391.110679,410.640552 C494.041096,307.746578 618.526952,256.260112 764.550028,256.260112 C895.182434,256.260112 1022.39537,295.483846 1120.53973,380.861368 C1125.61125,384.751551 1130.61595,388.763208 1135.56295,392.908485 C1148.06255,401.918768 1158.27846,405.739104 1177.96017,405.739104 C1199.26963,405.739104 1218.31664,400.178663 1235.11944,389.039559 C1236.01531,387.013992 1236.83525,384.958056 1237.57928,382.871752 C1238.32026,380.785447 1238.9914,378.668775 1239.58055,376.521734 C1228.45663,380.275259 1216.5735,382.145949 1203.92509,382.145949 C1177.25259,382.145949 1153.78394,373.891837 1133.60115,357.33806 C1030.60393,266.315066 910.1935,220.808124 772.272694,220.808124" id="Fill-32" fill="#1A203E"></path>
                        <path d="M1897.65314,1129.36173 C1896.57506,1182.69763 1853.50974,1222.87797 1799.80031,1223.50356 C1628.89646,1225.50179 1287.55644,1330.30897 1204.29255,1374.04544 C1089.2148,1440.45186 941.943588,1475.06872 769.982922,1475.06872 C748.063062,1475.06872 726.437774,1473.78718 705.052397,1471.70391 C683.093058,1469.99721 661.543691,1467.30051 640.386076,1463.65934 L638.907138,1463.4164 C620.218468,1460.16091 601.836518,1456.13407 583.764325,1451.37232 C582.774318,1451.10811 581.787347,1450.83176 580.797339,1450.57059 C562.770699,1445.72381 545.017374,1440.20588 527.613284,1433.85283 L526.668829,1433.49144 C517.051179,1429.96264 507.527671,1426.20001 498.104378,1422.20354 C496.67403,1421.38359 495.237608,1420.58187 493.813333,1419.73459 C478.4834,1410.63624 463.451077,1400.83031 448.670811,1390.40789 C446.153277,1388.63742 443.650926,1386.83658 441.151613,1385.02663 C426.699325,1374.54955 412.465689,1363.5137 398.544846,1351.75508 C396.327958,1349.89047 394.153586,1347.91349 391.954919,1346.01243 C377.952082,1333.91065 364.15575,1321.31387 350.699543,1307.90625 L349.48481,1306.7887 C237.301164,1194.59898 170.69127,1063.48979 149.655128,913.488463 C146.417864,890.405496 144.255639,866.879151 143.186674,842.909429 C142.640044,830.926086 142.372803,818.824306 142.372803,806.616238 C142.372803,611.253737 211.4152,444.561976 349.530363,306.443777 C452.166206,203.804896 580.584761,137.929916 715.183271,111.530727 C731.375665,110.495167 747.753305,109.918169 764.376928,109.918169 C934.910283,109.918169 1083.10469,164.733004 1208.96927,274.380894 C1231.67871,294.682123 1243.05772,319.842284 1243.05772,349.885672 C1243.05772,359.233044 1241.90069,368.112743 1239.58055,376.521734 C1246.38913,374.225888 1254.34259,372.953455 1259.15901,367.523598 C1275.80389,348.762044 1284.10659,327.100314 1284.10659,301.375302 C1284.10659,294.411844 1283.49315,287.123445 1282.2359,281.146958 C1282.23287,281.131774 1282.21768,281.122663 1282.21465,281.104442 C1280.36218,263.8856 1270.6929,256.903921 1251.91616,240.113271 C1234.61533,225.041469 1216.84074,210.577034 1198.61064,196.808033 C1082.47,117.561877 949.107477,74.3113024 800.68834,74.3113024 C603.236498,74.3113024 435.806787,147.766218 296.255202,287.317803 C245.640307,337.929661 204.205758,392.33756 171.948519,450.544537 C114.345871,552.393841 86.8746803,666.979622 86.8746803,792.841164 C86.8746803,805.18589 87.1479953,817.418253 87.6915884,829.529143 C88.7818114,853.760033 90.9652943,877.538435 94.2359634,900.861312 C104.594601,974.73531 125.89191,1044.07532 158.121818,1108.87222 C192.040206,1177.06734 238.066446,1240.23347 296.206613,1298.37364 L297.42742,1299.5003 C311.029394,1313.05672 324.977568,1325.79016 339.126173,1338.01949 C341.355208,1339.93877 343.547802,1341.937 345.788984,1343.82895 C359.858631,1355.71208 374.241072,1366.86029 388.857349,1377.45277 C391.374884,1379.28094 393.904566,1381.10304 396.446395,1382.8887 C411.387613,1393.42043 426.583925,1403.33873 442.080884,1412.53426 C443.890836,1413.61234 445.737231,1414.62664 447.55022,1415.68042 C481.292471,1435.28318 516.304118,1451.81569 552.636787,1465.14435 L553.629832,1465.52396 C571.862977,1472.1807 590.472689,1477.96283 609.367864,1483.04345 C610.403424,1483.32587 611.442021,1483.6083 612.480618,1483.87858 C631.421345,1488.8772 650.680939,1493.09233 670.274586,1496.50573 L671.829444,1496.76386 C690.141547,1499.91305 708.739112,1502.38504 727.622139,1504.16462 C731.60039,1504.53815 735.590789,1504.88131 739.593335,1505.19411 C762.014272,1507.37759 784.672083,1508.71683 807.651798,1508.71683 C925.374627,1508.71683 1032.06464,1493.23506 1125.51407,1463.1036 C1166.93343,1448.18668 1205.65305,1430.35136 1241.49983,1409.66445 C1311.34699,1372.97951 1491.76827,1290.67526 1655.59933,1254.39118 C1704.56219,1243.13668 1752.18884,1235.96672 1794.9019,1235.46564 C1808.16375,1235.3138 1820.81519,1232.68086 1832.43108,1228.01325 C1870.5403,1211.5931 1897.02755,1173.59321 1897.65618,1129.49232 L1897.65314,1129.36173" id="Fill-33" fill="#0A0D20"></path>
                        <path d="M1896.78157,1117.80355 C1892.32957,1091.33755 1876.00052,1063.41083 1846.63131,1042.22892 C1844.90639,1040.98382 1844.86387,1040.84413 1841.45047,1039.34393 C1831.56862,1034.19954 1820.78179,1030.57659 1809.41188,1028.76968 C1806.25054,1028.26556 1803.04365,1027.90722 1799.80031,1027.6916 C1797.93266,1027.82522 1796.08019,1027.96492 1794.2095,1028.11676 C1515.59222,1050.20061 1180.55363,1224.71525 1161.98643,1234.56066 C1110.06266,1264.47954 1050.15506,1286.70916 982.773807,1301.13715 C990.238343,1300.14715 997.496373,1298.94456 1004.78477,1297.76931 C997.517631,1298.99922 990.201901,1300.15322 982.773807,1301.13715 C920.901373,1314.38686 852.724473,1321.05574 778.619675,1321.05574 C635.004808,1321.05574 498.915212,1266.60229 397.047688,1176.47212 C392.358818,1172.07783 387.487738,1168.11172 382.868715,1163.5261 C382.303864,1162.97947 381.769381,1162.40248 381.201493,1161.84977 C274.229053,1054.44003 222.153441,928.156366 222.153441,775.944225 C222.153441,623.334259 275.856795,491.988196 383.388013,384.405352 C490.961747,276.877171 618.287042,226.110434 770.893972,226.110434 C908.814777,226.110434 1030.60393,266.315066 1133.60115,357.33806 C1153.78394,373.891837 1177.07645,382.850494 1203.75199,382.850494 C1216.39737,382.850494 1228.45663,380.275259 1239.58055,376.521734 C1241.90069,368.112743 1247.13923,355.600992 1247.13923,346.25362 C1247.13923,316.213268 1235.76325,291.053107 1213.05381,270.751879 C1087.18316,161.103988 932.046549,106.975478 761.516232,106.975478 C743.541217,106.975478 714.433174,108.332942 697.183962,111.351554 C554.477108,136.332542 450.90592,199.301273 346.67574,303.534491 C208.55754,441.65269 140.207541,611.736594 140.207541,807.096058 C140.207541,819.304126 140.477819,831.405905 141.021412,843.392285 C142.090377,867.365044 146.417864,890.405496 149.655128,913.488463 C170.69127,1063.48979 235.436548,1196.31783 347.620195,1308.51058 L348.834928,1309.62814 C362.294171,1323.03272 376.087467,1335.63254 390.090304,1347.73128 C392.292007,1349.63538 394.460306,1351.61235 396.680231,1353.48001 C410.601073,1365.23559 424.831673,1376.27144 439.286997,1386.74851 C441.783274,1388.55846 444.288661,1390.35627 446.806196,1392.12674 C461.583425,1402.54915 478.4834,1410.63624 493.813333,1419.73459 C495.237608,1420.58187 497.04756,1424.46294 498.477909,1425.27681 C507.901201,1429.27632 517.424709,1433.03896 527.042359,1436.56776 L527.986814,1436.9261 C545.393941,1443.28219 563.144229,1448.79708 581.17087,1453.6469 C582.160877,1453.90807 583.147848,1454.18442 584.137856,1454.44863 C602.210049,1459.21038 620.591998,1463.23419 639.283705,1466.49271 L640.759606,1466.73869 C661.917221,1470.37682 683.466588,1473.07656 705.425927,1474.78022 C726.811305,1476.86349 748.436592,1478.14504 770.356452,1478.14504 C942.320155,1478.14504 1089.43649,1445.9212 1204.5112,1379.51477 C1287.77205,1335.77831 1628.82358,1233.09995 1799.61202,1226.54343 C1861.88532,1224.15647 1896.57506,1182.69763 1897.65314,1129.36173 C1897.57722,1125.44726 1897.28265,1121.59048 1896.78157,1117.80355" id="Fill-34" fill="#000514"></path>
                    </g>
                </g>
            </g>
        </g>
    </g>
</svg>